<mxfile host="app.diagrams.net" modified="2023-02-26T13:58:32.872Z" agent="5.0 (Macintosh; Intel Mac OS X 10_15_7) AppleWebKit/537.36 (KHTML, like Gecko) Chrome/109.0.0.0 Safari/537.36" etag="Yx5odUvrEde5xAZ_wuLt" version="20.4.0" type="github">
  <diagram id="ikEMQ3taQZnn_D-MTjAt" name="第 1 页">
    <mxGraphModel dx="2381" dy="897" grid="1" gridSize="10" guides="1" tooltips="1" connect="1" arrows="1" fold="1" page="1" pageScale="1" pageWidth="827" pageHeight="1169" math="0" shadow="0">
      <root>
        <mxCell id="0" />
        <mxCell id="1" parent="0" />
        <mxCell id="W9ZC-a-q59-rkaMblsp5-1" value="Server" style="rounded=0;whiteSpace=wrap;html=1;verticalAlign=bottom;fillColor=#f5f5f5;fontColor=#333333;strokeColor=#666666;" vertex="1" parent="1">
          <mxGeometry x="-240" y="50" width="1340" height="840" as="geometry" />
        </mxCell>
        <mxCell id="W9ZC-a-q59-rkaMblsp5-2" value="Service" style="rounded=0;whiteSpace=wrap;html=1;verticalAlign=bottom;fillColor=#f8cecc;strokeColor=#b85450;" vertex="1" parent="1">
          <mxGeometry x="-200" y="80" width="1260" height="550" as="geometry" />
        </mxCell>
        <mxCell id="W9ZC-a-q59-rkaMblsp5-23" value="PermanentQueueManager" style="rounded=0;whiteSpace=wrap;html=1;verticalAlign=bottom;fillColor=#bac8d3;strokeColor=#23445d;" vertex="1" parent="1">
          <mxGeometry x="-20" y="110" width="1040" height="480" as="geometry" />
        </mxCell>
        <mxCell id="W9ZC-a-q59-rkaMblsp5-3" value="LogManager" style="rounded=0;whiteSpace=wrap;html=1;verticalAlign=bottom;fillColor=#e1d5e7;strokeColor=#9673a6;" vertex="1" parent="1">
          <mxGeometry x="250" y="130" width="730" height="430" as="geometry" />
        </mxCell>
        <mxCell id="W9ZC-a-q59-rkaMblsp5-4" value="Disk" style="ellipse;whiteSpace=wrap;html=1;aspect=fixed;" vertex="1" parent="1">
          <mxGeometry x="-70" y="750" width="80" height="80" as="geometry" />
        </mxCell>
        <mxCell id="W9ZC-a-q59-rkaMblsp5-5" value="UnifiedLog" style="rounded=0;whiteSpace=wrap;html=1;verticalAlign=bottom;fillColor=#ffe6cc;strokeColor=#d79b00;" vertex="1" parent="1">
          <mxGeometry x="270" y="140" width="370" height="300" as="geometry" />
        </mxCell>
        <mxCell id="W9ZC-a-q59-rkaMblsp5-6" value="UnifiedLog" style="rounded=0;whiteSpace=wrap;html=1;verticalAlign=middle;fillColor=#ffe6cc;strokeColor=#d79b00;" vertex="1" parent="1">
          <mxGeometry x="270" y="450" width="370" height="30" as="geometry" />
        </mxCell>
        <mxCell id="W9ZC-a-q59-rkaMblsp5-7" value="UnifiedLog" style="rounded=0;whiteSpace=wrap;html=1;verticalAlign=middle;fillColor=#ffe6cc;strokeColor=#d79b00;" vertex="1" parent="1">
          <mxGeometry x="270" y="490" width="370" height="30" as="geometry" />
        </mxCell>
        <mxCell id="W9ZC-a-q59-rkaMblsp5-8" value="LocalLog" style="rounded=0;whiteSpace=wrap;html=1;verticalAlign=bottom;fillColor=#d5e8d4;strokeColor=#82b366;" vertex="1" parent="1">
          <mxGeometry x="290" y="150" width="330" height="260" as="geometry" />
        </mxCell>
        <mxCell id="W9ZC-a-q59-rkaMblsp5-9" value="LogSegment" style="rounded=0;whiteSpace=wrap;html=1;verticalAlign=bottom;fillColor=#dae8fc;strokeColor=#6c8ebf;" vertex="1" parent="1">
          <mxGeometry x="310" y="170" width="290" height="150" as="geometry" />
        </mxCell>
        <mxCell id="W9ZC-a-q59-rkaMblsp5-10" value="LogSegment" style="rounded=0;whiteSpace=wrap;html=1;verticalAlign=middle;fillColor=#dae8fc;strokeColor=#6c8ebf;" vertex="1" parent="1">
          <mxGeometry x="310" y="330" width="290" height="20" as="geometry" />
        </mxCell>
        <mxCell id="W9ZC-a-q59-rkaMblsp5-11" value="FileRecords" style="rounded=0;whiteSpace=wrap;html=1;verticalAlign=middle;align=left;fillColor=#f5f5f5;fontColor=#333333;strokeColor=#666666;" vertex="1" parent="1">
          <mxGeometry x="320" y="180" width="260" height="30" as="geometry" />
        </mxCell>
        <mxCell id="W9ZC-a-q59-rkaMblsp5-12" value="FileChannel" style="rounded=0;whiteSpace=wrap;html=1;verticalAlign=bottom;fillColor=#f5f5f5;fontColor=#333333;strokeColor=#666666;" vertex="1" parent="1">
          <mxGeometry x="430" y="185" width="120" height="20" as="geometry" />
        </mxCell>
        <mxCell id="W9ZC-a-q59-rkaMblsp5-13" value="OffsetIndex" style="rounded=0;whiteSpace=wrap;html=1;verticalAlign=middle;align=left;fillColor=#f5f5f5;fontColor=#333333;strokeColor=#666666;" vertex="1" parent="1">
          <mxGeometry x="320" y="220" width="260" height="30" as="geometry" />
        </mxCell>
        <mxCell id="W9ZC-a-q59-rkaMblsp5-14" value="MappedByteBuffer" style="rounded=0;whiteSpace=wrap;html=1;verticalAlign=bottom;fillColor=#f5f5f5;fontColor=#333333;strokeColor=#666666;" vertex="1" parent="1">
          <mxGeometry x="430" y="225" width="120" height="20" as="geometry" />
        </mxCell>
        <mxCell id="W9ZC-a-q59-rkaMblsp5-15" value="TransactionIndex" style="rounded=0;whiteSpace=wrap;html=1;verticalAlign=middle;align=left;fillColor=#f5f5f5;fontColor=#333333;strokeColor=#666666;" vertex="1" parent="1">
          <mxGeometry x="320" y="260" width="260" height="30" as="geometry" />
        </mxCell>
        <mxCell id="W9ZC-a-q59-rkaMblsp5-16" value="FileChannel" style="rounded=0;whiteSpace=wrap;html=1;verticalAlign=bottom;fillColor=#f5f5f5;fontColor=#333333;strokeColor=#666666;" vertex="1" parent="1">
          <mxGeometry x="430" y="265" width="120" height="20" as="geometry" />
        </mxCell>
        <mxCell id="W9ZC-a-q59-rkaMblsp5-17" value="LogSegment" style="rounded=0;whiteSpace=wrap;html=1;verticalAlign=middle;fillColor=#dae8fc;strokeColor=#6c8ebf;" vertex="1" parent="1">
          <mxGeometry x="310" y="360" width="290" height="20" as="geometry" />
        </mxCell>
        <mxCell id="W9ZC-a-q59-rkaMblsp5-18" value="recovery-point-offset-checkpoint-cache" style="rounded=0;whiteSpace=wrap;html=1;verticalAlign=middle;fillColor=#ffe6cc;strokeColor=#d79b00;" vertex="1" parent="1">
          <mxGeometry x="670" y="140" width="280" height="30" as="geometry" />
        </mxCell>
        <mxCell id="W9ZC-a-q59-rkaMblsp5-19" value="log-start-offset-checkpoint" style="rounded=0;whiteSpace=wrap;html=1;verticalAlign=middle;fillColor=#ffe6cc;strokeColor=#d79b00;" vertex="1" parent="1">
          <mxGeometry x="670" y="180" width="280" height="30" as="geometry" />
        </mxCell>
        <mxCell id="W9ZC-a-q59-rkaMblsp5-20" value="LogCleaner" style="rounded=0;whiteSpace=wrap;html=1;verticalAlign=bottom;fillColor=#ffe6cc;strokeColor=#d79b00;" vertex="1" parent="1">
          <mxGeometry x="670" y="232.5" width="280" height="107.5" as="geometry" />
        </mxCell>
        <mxCell id="W9ZC-a-q59-rkaMblsp5-21" value="LogCleanerManager" style="rounded=0;whiteSpace=wrap;html=1;verticalAlign=bottom;fillColor=#d5e8d4;strokeColor=#82b366;" vertex="1" parent="1">
          <mxGeometry x="690" y="245" width="240" height="65" as="geometry" />
        </mxCell>
        <mxCell id="W9ZC-a-q59-rkaMblsp5-22" value="cleaner-offset-checkpoint-cache" style="rounded=0;whiteSpace=wrap;html=1;verticalAlign=middle;fillColor=#dae8fc;strokeColor=#6c8ebf;" vertex="1" parent="1">
          <mxGeometry x="710" y="260" width="200" height="20" as="geometry" />
        </mxCell>
        <mxCell id="W9ZC-a-q59-rkaMblsp5-24" value="" style="rounded=0;orthogonalLoop=1;jettySize=auto;html=1;fontColor=#000000;entryX=0;entryY=0.5;entryDx=0;entryDy=0;endArrow=none;endFill=0;exitX=1;exitY=0.5;exitDx=0;exitDy=0;" edge="1" parent="1" source="W9ZC-a-q59-rkaMblsp5-25" target="W9ZC-a-q59-rkaMblsp5-5">
          <mxGeometry relative="1" as="geometry" />
        </mxCell>
        <mxCell id="W9ZC-a-q59-rkaMblsp5-34" style="edgeStyle=none;rounded=0;orthogonalLoop=1;jettySize=auto;html=1;exitX=0;exitY=0.75;exitDx=0;exitDy=0;entryX=1;entryY=0.5;entryDx=0;entryDy=0;" edge="1" parent="1" source="W9ZC-a-q59-rkaMblsp5-25" target="W9ZC-a-q59-rkaMblsp5-31">
          <mxGeometry relative="1" as="geometry" />
        </mxCell>
        <mxCell id="W9ZC-a-q59-rkaMblsp5-25" value="PermanentQueue" style="rounded=0;whiteSpace=wrap;html=1;verticalAlign=middle;fillColor=#e1d5e7;strokeColor=#9673a6;" vertex="1" parent="1">
          <mxGeometry x="10" y="275" width="190" height="30" as="geometry" />
        </mxCell>
        <mxCell id="W9ZC-a-q59-rkaMblsp5-26" value="committed-read-offset-cache" style="rounded=0;whiteSpace=wrap;html=1;verticalAlign=middle;fillColor=#e1d5e7;strokeColor=#9673a6;" vertex="1" parent="1">
          <mxGeometry x="12.5" y="170" width="187.5" height="30" as="geometry" />
        </mxCell>
        <mxCell id="W9ZC-a-q59-rkaMblsp5-27" value="" style="rounded=0;orthogonalLoop=1;jettySize=auto;html=1;fontColor=#000000;entryX=0;entryY=0.5;entryDx=0;entryDy=0;exitX=1;exitY=0.5;exitDx=0;exitDy=0;endArrow=none;endFill=0;" edge="1" parent="1" source="W9ZC-a-q59-rkaMblsp5-28" target="W9ZC-a-q59-rkaMblsp5-6">
          <mxGeometry relative="1" as="geometry" />
        </mxCell>
        <mxCell id="W9ZC-a-q59-rkaMblsp5-28" value="PermanentQueue" style="rounded=0;whiteSpace=wrap;html=1;verticalAlign=middle;fillColor=#e1d5e7;strokeColor=#9673a6;" vertex="1" parent="1">
          <mxGeometry x="10" y="450" width="190" height="30" as="geometry" />
        </mxCell>
        <mxCell id="W9ZC-a-q59-rkaMblsp5-29" value="" style="rounded=0;orthogonalLoop=1;jettySize=auto;html=1;fontColor=#000000;entryX=0;entryY=0.5;entryDx=0;entryDy=0;exitX=1;exitY=0.5;exitDx=0;exitDy=0;endArrow=none;endFill=0;" edge="1" parent="1" source="W9ZC-a-q59-rkaMblsp5-30" target="W9ZC-a-q59-rkaMblsp5-7">
          <mxGeometry relative="1" as="geometry" />
        </mxCell>
        <mxCell id="W9ZC-a-q59-rkaMblsp5-30" value="PermanentQueue" style="rounded=0;whiteSpace=wrap;html=1;verticalAlign=middle;fillColor=#e1d5e7;strokeColor=#9673a6;" vertex="1" parent="1">
          <mxGeometry x="10" y="490" width="190" height="30" as="geometry" />
        </mxCell>
        <mxCell id="W9ZC-a-q59-rkaMblsp5-31" value="ReadThread" style="rounded=0;whiteSpace=wrap;html=1;verticalAlign=middle;fillColor=#bac8d3;strokeColor=#23445d;" vertex="1" parent="1">
          <mxGeometry x="-170" y="287.5" width="90" height="32.5" as="geometry" />
        </mxCell>
        <mxCell id="W9ZC-a-q59-rkaMblsp5-33" style="rounded=0;orthogonalLoop=1;jettySize=auto;html=1;exitX=1;exitY=0.5;exitDx=0;exitDy=0;entryX=0;entryY=0.25;entryDx=0;entryDy=0;" edge="1" parent="1" source="W9ZC-a-q59-rkaMblsp5-32" target="W9ZC-a-q59-rkaMblsp5-25">
          <mxGeometry relative="1" as="geometry" />
        </mxCell>
        <mxCell id="W9ZC-a-q59-rkaMblsp5-32" value="WriterThread" style="rounded=0;whiteSpace=wrap;html=1;verticalAlign=middle;fillColor=#bac8d3;strokeColor=#23445d;" vertex="1" parent="1">
          <mxGeometry x="-170" y="257.5" width="90" height="30" as="geometry" />
        </mxCell>
        <mxCell id="W9ZC-a-q59-rkaMblsp5-35" style="edgeStyle=none;rounded=0;orthogonalLoop=1;jettySize=auto;html=1;exitX=0;exitY=0.75;exitDx=0;exitDy=0;entryX=1;entryY=0.5;entryDx=0;entryDy=0;" edge="1" parent="1" target="W9ZC-a-q59-rkaMblsp5-36" source="W9ZC-a-q59-rkaMblsp5-28">
          <mxGeometry relative="1" as="geometry">
            <mxPoint x="10" y="447.5" as="sourcePoint" />
          </mxGeometry>
        </mxCell>
        <mxCell id="W9ZC-a-q59-rkaMblsp5-36" value="ReadThread" style="rounded=0;whiteSpace=wrap;html=1;verticalAlign=middle;fillColor=#bac8d3;strokeColor=#23445d;" vertex="1" parent="1">
          <mxGeometry x="-170" y="440" width="90" height="32.5" as="geometry" />
        </mxCell>
        <mxCell id="W9ZC-a-q59-rkaMblsp5-37" style="rounded=0;orthogonalLoop=1;jettySize=auto;html=1;exitX=1;exitY=0.5;exitDx=0;exitDy=0;entryX=0;entryY=0.25;entryDx=0;entryDy=0;" edge="1" parent="1" source="W9ZC-a-q59-rkaMblsp5-38" target="W9ZC-a-q59-rkaMblsp5-28">
          <mxGeometry relative="1" as="geometry">
            <mxPoint x="10" y="432.5" as="targetPoint" />
          </mxGeometry>
        </mxCell>
        <mxCell id="W9ZC-a-q59-rkaMblsp5-38" value="WriterThread" style="rounded=0;whiteSpace=wrap;html=1;verticalAlign=middle;fillColor=#bac8d3;strokeColor=#23445d;" vertex="1" parent="1">
          <mxGeometry x="-170" y="410" width="90" height="30" as="geometry" />
        </mxCell>
        <mxCell id="W9ZC-a-q59-rkaMblsp5-39" style="edgeStyle=none;rounded=0;orthogonalLoop=1;jettySize=auto;html=1;exitX=0;exitY=0.5;exitDx=0;exitDy=0;entryX=1;entryY=0.5;entryDx=0;entryDy=0;" edge="1" parent="1" target="W9ZC-a-q59-rkaMblsp5-40" source="W9ZC-a-q59-rkaMblsp5-30">
          <mxGeometry relative="1" as="geometry">
            <mxPoint x="10" y="572.5" as="sourcePoint" />
          </mxGeometry>
        </mxCell>
        <mxCell id="W9ZC-a-q59-rkaMblsp5-40" value="ReadThread" style="rounded=0;whiteSpace=wrap;html=1;verticalAlign=middle;fillColor=#bac8d3;strokeColor=#23445d;" vertex="1" parent="1">
          <mxGeometry x="-170" y="540" width="90" height="32.5" as="geometry" />
        </mxCell>
        <mxCell id="W9ZC-a-q59-rkaMblsp5-41" style="rounded=0;orthogonalLoop=1;jettySize=auto;html=1;exitX=1;exitY=0.5;exitDx=0;exitDy=0;entryX=0;entryY=0.25;entryDx=0;entryDy=0;" edge="1" parent="1" source="W9ZC-a-q59-rkaMblsp5-42" target="W9ZC-a-q59-rkaMblsp5-30">
          <mxGeometry relative="1" as="geometry">
            <mxPoint x="10" y="557.5" as="targetPoint" />
          </mxGeometry>
        </mxCell>
        <mxCell id="W9ZC-a-q59-rkaMblsp5-42" value="WriterThread" style="rounded=0;whiteSpace=wrap;html=1;verticalAlign=middle;fillColor=#bac8d3;strokeColor=#23445d;" vertex="1" parent="1">
          <mxGeometry x="-170" y="510" width="90" height="30" as="geometry" />
        </mxCell>
      </root>
    </mxGraphModel>
  </diagram>
</mxfile>
